<svg xmlns="http://www.w3.org/2000/svg" version="1.1" xmlns:xlink="http://www.w3.org/1999/xlink" xmlns:svgjs="http://svgjs.dev/svgjs" width="40" height="42"><svg width="40" height="42" viewBox="0 0 40 42" fill="none" xmlns="http://www.w3.org/2000/svg">
<path d="M17.4956 6.90399C17.4956 7.21206 17.3313 7.49672 17.0645 7.65075L7.49902 13.1734C7.23222 13.3275 7.06787 13.6121 7.06787 13.9202V28.0797C7.06787 28.3878 7.23224 28.6725 7.49907 28.8265L17.0644 34.3482C17.3312 34.5023 17.4956 34.7869 17.4956 35.095V40.585C17.4956 41.2488 16.777 41.6637 16.2021 41.3318L1.02146 32.5668C0.754677 32.4127 0.590332 32.1281 0.590332 31.82V10.1799C0.590332 9.87188 0.754677 9.58722 1.02146 9.43318L16.2021 0.668177C16.777 0.336264 17.4956 0.751134 17.4956 1.41494V6.90399ZM39.3652 9.43319C39.632 9.58722 39.7964 9.87189 39.7964 10.18V31.82C39.7964 32.1281 39.632 32.4127 39.3652 32.5668L24.1826 41.3319C23.6077 41.6638 22.8892 41.2489 22.8892 40.5851V35.095C22.8892 34.7869 23.0535 34.5023 23.3203 34.3482L32.8848 28.8265C33.1516 28.6725 33.3159 28.3878 33.3159 28.0798V13.9202C33.3159 13.6121 33.1516 13.3274 32.8848 13.1734L23.3203 7.65076C23.0535 7.49672 22.8892 7.21207 22.8892 6.90401V1.41485C22.8892 0.751066 23.6077 0.336194 24.1826 0.668069L39.3652 9.43319ZM26.625 16.7877C26.8918 16.9417 27.0562 17.2264 27.0562 17.5344V24.4646C27.0562 24.7726 26.8918 25.0573 26.625 25.2113L20.624 28.6763C20.3572 28.8304 20.0285 28.8304 19.7617 28.6763L13.7598 25.2113C13.493 25.0573 13.3286 24.7726 13.3286 24.4645V17.5345C13.3286 17.2264 13.493 16.9417 13.7598 16.7877L19.7617 13.3226C20.0285 13.1686 20.3572 13.1686 20.624 13.3227L26.625 16.7877Z" fill="#F7AD33"></path>
<path d="M20.6242 29.6065C20.3574 29.7606 20.0287 29.7606 19.7619 29.6065L12.955 25.6766C12.6882 25.5225 12.5239 25.2379 12.5239 24.9298L12.5239 17.0699C12.5239 16.7618 12.6882 16.4771 12.955 16.3231L19.7619 12.3931C20.0287 12.2391 20.3574 12.2391 20.6242 12.3931L27.4311 16.3231C27.6979 16.4771 27.8623 16.7618 27.8623 17.0699L27.8623 24.9298C27.8623 25.2379 27.6979 25.5225 27.4311 25.6766L20.6242 29.6065Z" fill="#F7AD33"></path>
</svg><style>@media (prefers-color-scheme: light) { :root { filter: none; } }
@media (prefers-color-scheme: dark) { :root { filter: none; } }
</style></svg>